<?xml version="1.0" encoding="UTF-8" standalone="no"?>
<!DOCTYPE svg PUBLIC "-//W3C//DTD SVG 1.1//EN" "http://www.w3.org/Graphics/SVG/1.1/DTD/svg11.dtd">
<svg width="100%" height="100%" viewBox="0 0 143 94" version="1.1" xmlns="http://www.w3.org/2000/svg" xmlns:xlink="http://www.w3.org/1999/xlink" xml:space="preserve" xmlns:serif="http://www.serif.com/" style="fill-rule:evenodd;clip-rule:evenodd;stroke-linecap:round;stroke-linejoin:round;stroke-miterlimit:5;">
    <g transform="matrix(1,0,0,1,-37.8503,-1381.67)">
        <g transform="matrix(1,0,0,1,8.18361,-558)">
            <path d="M124,1948L164,1948C128.569,1993.07 86.737,2019.23 38,2025L44,1998C76.223,1990.43 101.797,1983.7 124,1948Z" style="fill:none;stroke:black;stroke-width:16.67px;"/>
            <path d="M124,1948L164,1948C128.569,1993.07 86.737,2019.23 38,2025L44,1998C76.223,1990.43 101.797,1983.7 124,1948Z" style="fill:white;"/>
        </g>
        <g transform="matrix(1,0,0,1,-46.5,-82)">
            <path d="M92.684,1535C104.651,1534.67 116.748,1531.52 129,1525" style="fill:none;stroke:black;stroke-width:6.25px;"/>
        </g>
        <g transform="matrix(1,0,0,1,-46.5,-82)">
            <path d="M200,1469C197.531,1480.02 191.042,1488.59 181,1495" style="fill:none;stroke:black;stroke-width:6.25px;"/>
        </g>
    </g>
</svg>
