<?xml version="1.0" encoding="UTF-8" standalone="no"?>
<!DOCTYPE svg PUBLIC "-//W3C//DTD SVG 1.1//EN" "http://www.w3.org/Graphics/SVG/1.1/DTD/svg11.dtd">
<svg width="100%" height="100%" viewBox="0 0 62 89" version="1.1" xmlns="http://www.w3.org/2000/svg" xmlns:xlink="http://www.w3.org/1999/xlink" xml:space="preserve" xmlns:serif="http://www.serif.com/" style="fill-rule:evenodd;clip-rule:evenodd;stroke-linejoin:round;stroke-miterlimit:2;">
    <g transform="matrix(1,0,0,1,-72.9531,-630.935)">
        <g transform="matrix(1.59743,0,0,0.666667,-427.355,340.104)">
            <rect x="324" y="515" width="15" height="42" style="fill:white;"/>
        </g>
        <g transform="matrix(1.59743,0,0,0.119048,-427.355,653.494)">
            <rect x="324" y="515" width="15" height="42" style="fill:white;"/>
        </g>
        <g transform="matrix(1.59743,0,0,1,-427.407,164.438)">
            <path d="M324,515L339,515C339.53,507.607 336.145,495.641 331.5,494C326.223,495.896 324.738,506.724 324,515Z" style="fill:white;"/>
        </g>
        <g transform="matrix(0.992366,-0.123331,0.123331,0.992366,-80.4251,18.9159)">
            <path d="M79.468,651.506L82.997,659.067C83.174,659.53 83.262,660.028 83.302,660.522C83.342,661.027 83.279,661.536 83.236,662.04C83.151,663.025 83.118,663.018 83,664C81.921,662.777 80.565,661.818 79.486,660.595C78.928,659.963 78.508,659.214 78.118,658.465C77.586,657.444 74.428,650.57 74.112,649.881C73.6,648.765 74.168,647.48 75.24,647.06C76.137,646.709 76.181,646.951 91.992,648.784C104.34,630.79 104.176,630.577 105.078,630.132C106.068,629.643 107.314,630.043 107.836,631.015C108.038,631.392 107.999,631.408 114.452,650.769C133.866,648.95 133.924,648.687 134.845,649.096C136.091,649.649 136.5,651.309 135.557,652.384C134.59,653.486 133.609,654.575 132.636,655.671L124.809,664.476C124.655,664.643 123.609,665.783 122.672,666.355C121.144,667.288 119.527,668.068 118,669C118.36,667.779 118.603,666.526 118.963,665.305C119.178,664.575 119.713,663.942 119.801,663.838C120.51,662.999 120.53,663.018 128.923,653.576C123.68,654.066 118.44,654.584 113.198,655.074C112.27,655.161 111.687,654.624 111.587,654.531C110.86,653.86 111.07,653.707 105.35,636.639C94.784,652.082 94.88,652.178 94.277,652.646C94.236,652.678 94.019,652.846 93.713,652.958C92.853,653.271 92.817,653.051 79.468,651.506Z" style="fill:white;"/>
        </g>
    </g>
</svg>
