<?xml version="1.0" encoding="UTF-8" standalone="no"?>
<!DOCTYPE svg PUBLIC "-//W3C//DTD SVG 1.1//EN" "http://www.w3.org/Graphics/SVG/1.1/DTD/svg11.dtd">
<svg width="100%" height="100%" viewBox="0 0 120 314" version="1.1" xmlns="http://www.w3.org/2000/svg" xmlns:xlink="http://www.w3.org/1999/xlink" xml:space="preserve" xmlns:serif="http://www.serif.com/" style="fill-rule:evenodd;clip-rule:evenodd;stroke-linecap:round;stroke-linejoin:round;stroke-miterlimit:1.5;">
    <g transform="matrix(1,0,0,1,-65.2552,-979)">
        <g transform="matrix(2.5814,0,0,2.5814,-1112.86,562.405)">
            <circle cx="479.5" cy="191.5" r="21.5" style="fill:none;stroke:white;stroke-width:3.23px;"/>
        </g>
        <g transform="matrix(1,0,0,1,-351.078,157)">
            <path d="M441,855C443.791,848.131 459.227,843.279 476,843C486.145,843.036 497.152,847.069 509,855L500,829L451,829L441,855Z" style="fill:white;"/>
        </g>
        <g transform="matrix(1,0,0,0.795699,-350.578,354.495)">
            <rect x="464" y="952" width="23" height="186" style="fill:white;"/>
        </g>
        <g transform="matrix(1,0,0,1,-351.578,50)">
            <path d="M513,1205L513,1219C513,1222.86 509.863,1226 506,1226L447,1226C443.137,1226 440,1222.86 440,1219L440,1205C440,1201.14 443.137,1198 447,1198L506,1198C509.863,1198 513,1201.14 513,1205Z" style="fill:white;"/>
        </g>
        <g transform="matrix(1.32877,0,0,1.28571,-508.236,-283.674)">
            <path d="M513,1205L513,1219C513,1222.86 509.965,1226 506.227,1226L446.773,1226C443.035,1226 440,1222.86 440,1219L440,1205C440,1201.14 443.035,1198 446.773,1198L506.227,1198C509.965,1198 513,1201.14 513,1205Z" style="fill:white;"/>
        </g>
        <g transform="matrix(1,0,0,1,-350.078,50)">
            <path d="M493,932L493,938C493,939.656 491.656,941 490,941L460,941C458.344,941 457,939.656 457,938L457,932C457,930.344 458.344,929 460,929L490,929C491.656,929 493,930.344 493,932Z" style="fill:white;"/>
        </g>
        <g transform="matrix(1,0,0,1,-349,49.7181)">
            <path d="M474,1062L431,1061L415,1081L427,1093L426,1080L438,1071L469,1082L474,1062Z" style="fill:white;"/>
        </g>
        <g transform="matrix(-1,0,0,1,599,49.7181)">
            <path d="M474,1062L431,1061L415,1081L427,1093L426,1080L438,1071L469,1082L474,1062Z" style="fill:white;"/>
        </g>
        <path d="M96,1114L79.987,1088.24C109.642,1092.91 139.97,1093.15 171,1087L154.5,1116L96,1114Z" style="fill:white;"/>
    </g>
</svg>
