<?xml version="1.0" encoding="UTF-8" standalone="no"?>
<!DOCTYPE svg PUBLIC "-//W3C//DTD SVG 1.1//EN" "http://www.w3.org/Graphics/SVG/1.1/DTD/svg11.dtd">
<svg width="100%" height="100%" viewBox="0 0 152 58" version="1.1" xmlns="http://www.w3.org/2000/svg" xmlns:xlink="http://www.w3.org/1999/xlink" xml:space="preserve" xmlns:serif="http://www.serif.com/" style="fill-rule:evenodd;clip-rule:evenodd;stroke-linejoin:round;stroke-miterlimit:2;">
    <g transform="matrix(1,0,0,1,-539.458,-1076.46)">
        <path d="M615,1076.46C641.808,1076.46 664.995,1081.28 676.548,1087.57C680.597,1089.77 683.47,1091.03 685.353,1092.37C686.145,1092.93 686.823,1093.51 687.406,1094.12L689.199,1096.61C690.034,1098.19 690.542,1100.06 690.542,1102.5C690.542,1109.15 686.704,1116.91 676.548,1122.43C664.995,1128.72 641.808,1133.54 615,1133.54C588.192,1133.54 565.005,1128.72 553.452,1122.43C543.296,1116.91 539.458,1109.15 539.458,1102.5C539.458,1100.06 539.966,1098.19 540.801,1096.61L542.594,1094.12C543.177,1093.51 543.855,1092.93 544.647,1092.37C546.53,1091.03 549.403,1089.77 553.452,1087.57C565.005,1081.28 588.192,1076.46 615,1076.46ZM615,1082.71C589.51,1082.71 567.425,1087.08 556.439,1093.06C548.936,1097.14 545.708,1097.59 545.708,1102.5C545.708,1107.41 548.936,1112.86 556.439,1116.94C567.425,1122.92 589.51,1127.29 615,1127.29C640.49,1127.29 662.575,1122.92 673.561,1116.94C681.064,1112.86 684.292,1107.41 684.292,1102.5C684.292,1097.59 681.064,1097.14 673.561,1093.06C662.575,1087.08 640.49,1082.71 615,1082.71ZM560.966,1102.5C561.198,1102.29 561.448,1102.08 561.676,1101.92C563.206,1100.86 565.21,1099.89 567.589,1098.97C578.28,1094.86 595.55,1092.29 615,1092.29C634.45,1092.29 651.72,1094.86 662.411,1098.97C664.79,1099.89 666.794,1100.86 668.324,1101.92C668.552,1102.08 668.802,1102.29 669.034,1102.5C668.802,1102.71 668.552,1102.92 668.324,1103.08C666.794,1104.14 664.79,1105.11 662.411,1106.03C651.72,1110.14 634.45,1112.71 615,1112.71C595.55,1112.71 578.28,1110.14 567.589,1106.03C565.21,1105.11 563.206,1104.14 561.676,1103.08C561.448,1102.92 561.198,1102.71 560.966,1102.5ZM577.243,1102.5C587.201,1105.02 600.465,1106.46 615,1106.46C629.535,1106.46 642.799,1105.02 652.757,1102.5C642.799,1099.99 629.535,1098.54 615,1098.54C600.465,1098.54 587.201,1099.99 577.243,1102.5Z"/>
        <path d="M615,1082.71C640.49,1082.71 662.575,1087.08 673.561,1093.06C681.064,1097.14 684.292,1097.59 684.292,1102.5C684.292,1107.41 681.064,1112.86 673.561,1116.94C662.575,1122.92 640.49,1127.29 615,1127.29C589.51,1127.29 567.425,1122.92 556.439,1116.94C548.936,1112.86 545.708,1107.41 545.708,1102.5C545.708,1097.59 548.936,1097.14 556.439,1093.06C567.425,1087.08 589.51,1082.71 615,1082.71ZM560.966,1102.5C561.198,1102.71 561.448,1102.92 561.676,1103.08C563.206,1104.14 565.21,1105.11 567.589,1106.03C578.28,1110.14 595.55,1112.71 615,1112.71C634.45,1112.71 651.72,1110.14 662.411,1106.03C664.79,1105.11 666.794,1104.14 668.324,1103.08C668.552,1102.92 668.802,1102.71 669.034,1102.5C668.802,1102.29 668.552,1102.08 668.324,1101.92C666.794,1100.86 664.79,1099.89 662.411,1098.97C651.72,1094.86 634.45,1092.29 615,1092.29C595.55,1092.29 578.28,1094.86 567.589,1098.97C565.21,1099.89 563.206,1100.86 561.676,1101.92C561.448,1102.08 561.198,1102.29 560.966,1102.5Z" style="fill:white;"/>
    </g>
</svg>
