<?xml version="1.0" encoding="UTF-8" standalone="no"?>
<!DOCTYPE svg PUBLIC "-//W3C//DTD SVG 1.1//EN" "http://www.w3.org/Graphics/SVG/1.1/DTD/svg11.dtd">
<svg width="100%" height="100%" viewBox="0 0 829 802" version="1.1" xmlns="http://www.w3.org/2000/svg" xmlns:xlink="http://www.w3.org/1999/xlink" xml:space="preserve" xmlns:serif="http://www.serif.com/" style="fill-rule:evenodd;clip-rule:evenodd;stroke-linejoin:round;stroke-miterlimit:5;">
    <g transform="matrix(1,0,0,1,46.25,-1723.75)">
        <path d="M776,1730C776.442,1746.37 777.121,1762.73 777.563,1779.1C777.993,1795.04 778.37,1810.98 778.617,1826.91C778.891,1844.64 779.07,1862.37 779.125,1880.11L779.125,2476.63C779.125,2518.81 779.376,2518.86 778.937,2520.07C778.5,2521.27 777.28,2522.12 776,2522.12L-40,2522.12C-41.762,2522.11 -43.125,2520.64 -43.125,2519L-43.125,1730C-43.125,1728.31 -41.705,1726.88 -40,1726.88L607.625,1726.88C616.768,1726.88 658.001,1726.93 721.912,1728.47C739.943,1728.9 757.969,1729.57 776,1730L-40,1730L-40,2519L776,2519L776,1730Z" style="fill-opacity:0.22;"/>
        <rect x="-40" y="1730" width="816" height="789"/>
        <g transform="matrix(1,0,0,1,-483,-2)">
            <path d="M1092.74,2362.6C1030.17,2419.04 947.317,2453.42 856.5,2453.42C661.72,2453.42 503.583,2295.28 503.583,2100.5C503.583,1905.72 661.72,1747.58 856.5,1747.58C1051.28,1747.58 1209.42,1905.72 1209.42,2100.5C1209.42,2131.63 1205.38,2161.82 1197.79,2190.58L1205,2190.58C1208.37,2190.58 1211.52,2192.21 1213.48,2194.95C1215.43,2197.69 1215.94,2201.2 1214.85,2204.39C1194.96,2262.26 1172.01,2305.44 1122.73,2359.98C1120.66,2362.27 1117.69,2363.52 1114.61,2363.41L1092.74,2362.6ZM1088.87,2352.03L1115,2353C1163.14,2299.71 1185.57,2257.54 1205,2201L1183.99,2201C1193.75,2169.21 1199,2135.47 1199,2100.5C1199,1911.47 1045.53,1758 856.5,1758C667.469,1758 514,1911.47 514,2100.5C514,2289.53 667.469,2443 856.5,2443C946.144,2443 1027.79,2408.49 1088.87,2352.03Z"/>
            <path d="M1088.87,2352.03C1027.79,2408.49 946.144,2443 856.5,2443C667.469,2443 514,2289.53 514,2100.5C514,1911.47 667.469,1758 856.5,1758C1045.53,1758 1199,1911.47 1199,2100.5C1199,2135.47 1193.75,2169.21 1183.99,2201L1205,2201C1185.57,2257.54 1163.14,2299.71 1115,2353L1088.87,2352.03Z" style="fill:rgb(209,175,147);"/>
        </g>
        <g transform="matrix(0.96827,0,0,0.946167,-821.61,120.475)">
            <path d="M1239,1722L1242,1733.87L1244.53,1745.8L1245.69,1752.42L1246.65,1759.16C1248.99,1778.44 1253.68,1819.55 1254.28,1824.8C1287.43,2115.2 1285.68,2185.26 1251.98,2405.17C1251.52,2408.19 1251.57,2408.2 1250.97,2411.19C1250.81,2411.97 1249.06,2420.77 1249.02,2420.93C1249.01,2420.98 1246.31,2431.32 1246.3,2431.37C1246.29,2431.4 1243.01,2442 1243,2442C1243,2442 1243,2442 1243.06,2435.42C1243.1,2432.18 1243.04,2432.18 1243.21,2428.94C1243.68,2420.12 1243.68,2420.12 1243.68,2420.07C1243.69,2420.04 1244.02,2417.08 1244.77,2410.19C1245.17,2406.56 1245.28,2406.58 1248.73,2383.58C1281.33,2166.68 1279.79,2096.57 1241.13,1767.48C1240.4,1761.31 1240.37,1761.32 1240.13,1758.71C1239.71,1754.25 1239.67,1754.25 1239.4,1749.78C1239.12,1745.23 1239.16,1745.23 1239.04,1740.68C1238.87,1734.42 1238.87,1734.42 1238.86,1734.26C1238.86,1734.16 1238.86,1734.16 1239,1722Z" style="fill-opacity:0.22;"/>
            <g transform="matrix(-1,0,0,1,2476.99,2)">
                <path d="M1239,1722L1238.86,1734.26C1238.9,1736.4 1238.98,1738.54 1239.04,1740.68C1239.16,1745.23 1239.12,1745.23 1239.4,1749.78C1239.45,1750.59 1239.77,1755.83 1240.24,1759.95C1244.83,1800.11 1260.11,1924.54 1267.02,2018.32C1277.74,2163.66 1270.15,2244.02 1245.61,2404.15C1245.14,2407.17 1245.1,2407.16 1244.77,2410.19C1244.02,2417.08 1243.69,2420.04 1243.68,2420.07C1243.68,2420.12 1243.68,2420.12 1243.21,2428.94C1243.04,2432.18 1243.1,2432.18 1243.06,2435.42C1243,2442 1243,2442 1243,2442C1243.01,2442 1246.29,2431.4 1246.3,2431.37C1246.31,2431.32 1249.01,2420.98 1249.02,2420.93C1249.04,2420.85 1251.35,2409.29 1251.36,2409.21C1252.07,2405.01 1255.99,2378.75 1256.38,2376.1C1287.87,2164.76 1285.61,2090.74 1247.54,1766.69C1246.89,1761.16 1246.93,1761.15 1246.48,1757.93C1245.85,1753.49 1245.88,1753.49 1245.11,1749.07C1244.32,1744.59 1244.28,1744.6 1243.33,1740.14L1242,1733.87L1239,1722Z" style="fill-opacity:0.22;"/>
            </g>
            <path d="M1250,2446C1253.9,2436.26 1253.82,2436.23 1254.63,2434.24C1254.94,2433.46 1256.15,2430.75 1259.45,2422.65C1259.48,2422.6 1260.44,2420.45 1261.94,2417C1262.69,2415.27 1262.74,2415.3 1265.16,2410.05C1268.34,2403.13 1288.69,2363.43 1304.86,2307.26C1357.47,2124.57 1317.22,1942.63 1250.13,1757.82C1250.11,1757.78 1248.69,1753.28 1247.26,1748.8C1246.96,1747.88 1246.63,1746.97 1246.37,1746.03C1246.35,1745.99 1245.42,1742.42 1243.86,1736.55C1243.28,1734.36 1243.32,1734.35 1241,1724C1244.72,1730.75 1246.15,1733.28 1247.12,1735.27C1247.46,1735.97 1251.3,1743.79 1251.42,1744.08C1252.04,1745.55 1256.06,1755.21 1256.17,1755.49C1257.47,1758.85 1263.01,1774.55 1263.59,1776.21C1341.56,1997.4 1372.52,2203.61 1271.61,2411.61C1269.21,2416.55 1266.98,2420.42 1266.55,2421.17C1265.14,2423.62 1264.52,2424.91 1257.44,2435.74C1256.48,2437.2 1250.6,2445.18 1250,2446Z" style="fill-opacity:0.22;"/>
            <g transform="matrix(-1,0,0,1,2477.09,0.457031)">
                <path d="M1250,2446C1257.22,2436.2 1257.59,2435.53 1260.01,2431.8C1265.51,2423.28 1266.7,2421.15 1270.93,2412.99C1270.94,2412.98 1273.63,2407.51 1276.86,2400.53C1376.12,2186.11 1335.73,1974.64 1256.18,1755.52C1256.09,1755.29 1251.52,1744.3 1251.42,1744.08C1251.32,1743.86 1246.65,1734.31 1246.53,1734.07C1245.99,1733.04 1241.44,1724.8 1241,1724C1243.46,1734.95 1243.44,1734.95 1243.86,1736.55C1245.44,1742.51 1246.36,1746.02 1246.37,1746.03C1246.66,1746.98 1249.66,1756.45 1250.12,1757.79C1252.54,1764.91 1276.77,1828.99 1296.32,1903.24C1342.22,2077.52 1346.37,2242.66 1265.83,2408.67C1263.42,2413.63 1261.67,2417.62 1261.33,2418.41C1259.77,2421.96 1259.75,2421.94 1258.28,2425.53C1256.32,2430.29 1254.63,2434.23 1254.63,2434.24C1252.86,2438.83 1252.81,2438.97 1250,2446Z" style="fill-opacity:0.22;"/>
            </g>
            <path d="M1240.99,1723.99C1250.87,1733.56 1250.99,1733.88 1252.25,1735.24C1258.69,1742.18 1258.63,1742.24 1258.85,1742.51C1267.67,1753.23 1267.55,1753.33 1268.53,1754.66C1440.28,1987.33 1473.13,2211.22 1283.48,2416.64C1282.94,2417.22 1280.28,2420.1 1276.59,2423.75C1276.24,2424.09 1271.48,2428.57 1271.12,2428.89C1269.89,2430 1261.88,2436.85 1260.79,2437.73C1258.57,2439.54 1250.87,2445.35 1250,2446C1257.96,2436.3 1257.89,2436.25 1258.59,2435.41C1259.1,2434.79 1261.47,2432.09 1267.2,2425.14C1267.5,2424.78 1268.62,2423.54 1271.81,2419.83C1273.51,2417.85 1279.29,2411.55 1279.95,2410.84C1458.73,2216.18 1441.45,1999.09 1262.24,1757.09C1260.29,1754.45 1260.37,1754.39 1254.5,1745.97C1253.04,1743.87 1253.12,1743.82 1248.16,1736.03C1246.55,1733.51 1246.6,1733.48 1245.09,1730.9C1243.39,1728.02 1243.1,1727.54 1240.99,1723.99Z" style="fill-opacity:0.22;"/>
            <g transform="matrix(-1,0,0,1,2477.09,0.457031)">
                <path d="M1250,2446C1260.78,2437.87 1260.79,2437.88 1271,2429C1271.46,2428.59 1276.33,2424.01 1276.59,2423.75C1280.49,2419.89 1284.02,2416.05 1284.65,2415.36C1476.56,2206.41 1436.13,1980.97 1267.39,1753.1C1266.74,1752.23 1265.81,1750.97 1258.85,1742.51C1258.25,1741.78 1257.58,1740.97 1250.91,1733.8C1250.15,1732.98 1249.01,1731.76 1241,1724C1243.2,1727.7 1244.37,1729.67 1247.11,1734.35C1247.64,1735.27 1248.68,1736.8 1253.41,1744.35C1254.24,1745.67 1254.82,1746.35 1261.11,1755.54C1264.49,1760.49 1300.69,1807.26 1334,1868.25C1457.15,2093.72 1410.62,2269.86 1277.61,2413.37C1277.6,2413.39 1272.27,2419.29 1271.81,2419.83C1268.93,2423.17 1268.88,2423.12 1266.08,2426.51C1259.25,2434.76 1259.18,2434.69 1258.59,2435.41C1257.89,2436.25 1257.96,2436.3 1250,2446Z" style="fill-opacity:0.22;"/>
            </g>
            <path d="M1240.99,1724C1254.11,1731.47 1254.5,1731.87 1255.77,1732.68C1265.72,1739.02 1265.65,1739.12 1265.84,1739.25C1278.27,1748.18 1278.59,1748.64 1279.17,1749.1C1519.13,1939.72 1609.42,2159.63 1323.01,2395.24C1309.23,2406.58 1294.26,2418.13 1287.96,2422.66C1280.45,2428.07 1277.43,2430.01 1268.61,2435.41C1263.04,2438.82 1262.77,2439.01 1250,2446C1252.48,2443.86 1255.59,2441.2 1260.86,2436.56C1262.52,2435.1 1264.66,2433.42 1271.66,2427.5C1279.74,2420.66 1290.62,2412.55 1296.71,2407.84C1553.01,2209.52 1552.64,2012.09 1343.81,1813.66C1308.3,1779.91 1275.81,1754.9 1272.67,1752.31C1272.59,1752.24 1268.41,1748.67 1262.51,1743.77C1259.78,1741.5 1259.86,1741.41 1251.73,1734.14C1250.85,1733.35 1250.88,1733.31 1240.99,1724Z" style="fill-opacity:0.22;"/>
            <g transform="matrix(-1,0,0,1,2477.09,0.457031)">
                <path d="M1250,2446C1262.47,2439.17 1262.5,2439.23 1274.59,2431.73C1285.1,2425.21 1296.26,2416.45 1298.83,2414.48C1532.24,2234.7 1590.69,2028.32 1332.54,1794.28C1309.29,1773.2 1288.55,1756.52 1277.33,1747.64C1276.43,1746.93 1275.49,1746.18 1265.84,1739.25C1265.73,1739.17 1265.8,1739.05 1253.72,1731.38C1251.79,1730.15 1242.02,1724.58 1241,1724C1242.53,1725.44 1245.72,1728.44 1249.94,1732.47C1252.6,1735.01 1252.67,1734.93 1260.69,1742.22C1261.09,1742.58 1272.82,1752.42 1273.38,1752.87C1473.63,1911.46 1558.75,2080.48 1442.53,2257.76C1400.94,2321.2 1340.94,2374.44 1287.8,2414.66C1286.2,2415.86 1277.38,2422.66 1271.66,2427.5C1266.17,2432.14 1261.59,2435.92 1261.58,2435.93C1260.65,2436.72 1260.69,2436.77 1250,2446Z" style="fill-opacity:0.22;"/>
            </g>
            <path d="M1240.99,1724C1244.03,1724.58 1253.87,1726.54 1257.35,1727.43C1268.54,1730.28 1270.81,1731.02 1271.97,1731.39C1283.61,1735.18 1287.08,1736.54 1288.37,1737.05C1647.99,1878.1 1646.57,2262.82 1300.49,2427.98C1294.53,2430.82 1288.1,2433.4 1287.01,2433.84C1286.98,2433.85 1282.65,2435.76 1268.27,2440.62C1266.82,2441.11 1263.04,2442.39 1250,2446C1262.78,2439.63 1262.7,2439.47 1265.85,2437.92C1274.77,2433.54 1274.7,2433.4 1283.59,2428.98C1287.42,2427.07 1287.4,2427.05 1291.25,2425.18L1302.1,2419.91C1638.52,2256.26 1639.37,1881.08 1284.93,1742.77C1282.66,1741.89 1279.25,1740.31 1268.98,1736.24C1268.22,1735.93 1264.61,1734.24 1255.11,1730.26C1253.87,1729.74 1252.66,1729.04 1240.99,1724Z" style="fill-opacity:0.22;"/>
            <g transform="matrix(-1,0,0,1,2477.09,0.457031)">
                <path d="M1249.99,2446C1265.96,2441.54 1265.96,2441.53 1272.86,2439.31C1285.9,2435.11 1288.84,2434.05 1300.23,2429.52C1300.29,2429.5 1321.38,2420.85 1345.05,2409.69C1431.22,2369.05 1486.13,2326.32 1519.33,2272.77C1632.26,2090.62 1567.47,1867.22 1288.63,1740.38C1287.24,1739.75 1283.91,1738.23 1270.98,1733.17C1270.89,1733.14 1259.36,1729.13 1254.35,1727.7C1247.75,1725.81 1242.07,1724.29 1241,1724C1253.89,1730.63 1253.85,1730.71 1254.97,1731.29C1255.11,1731.36 1260.37,1733.93 1267.18,1737.43C1270.58,1739.17 1272.29,1739.8 1282.61,1744.83C1293.18,1749.98 1353.52,1775.51 1413.98,1822.15C1578.77,1949.28 1604.96,2123.46 1513.19,2270.34C1471.11,2337.68 1394.51,2382.72 1300.42,2422.32C1295.62,2424.34 1295.65,2424.38 1289.91,2426.87C1289.27,2427.14 1289.28,2427.17 1282,2430.46C1279.63,2431.53 1278.5,2432.17 1266.08,2438.01C1264.78,2438.62 1264.81,2438.68 1249.99,2446Z" style="fill-opacity:0.22;"/>
            </g>
        </g>
        <g transform="matrix(0.879996,0,0,0.879996,62.0835,281.496)">
            <g transform="matrix(1,0,0,1,3,1)">
                <path d="M525.102,2312L525.102,2353C525.102,2356.92 521.922,2360.1 518,2360.1L513,2360.1C509.078,2360.1 505.898,2356.92 505.898,2353L505.898,2312C505.898,2308.08 509.078,2304.9 513,2304.9L518,2304.9C521.922,2304.9 525.102,2308.08 525.102,2312ZM518,2312L513,2312L513,2353L518,2353L518,2312Z"/>
                <rect x="513" y="2312" width="5" height="41" style="fill:rgb(180,121,88);"/>
            </g>
            <g transform="matrix(1,0,0,1,53.0117,1.05859)">
                <path d="M525.102,2312L525.102,2353C525.102,2356.92 521.922,2360.1 518,2360.1L513,2360.1C509.078,2360.1 505.898,2356.92 505.898,2353L505.898,2312C505.898,2308.08 509.078,2304.9 513,2304.9L518,2304.9C521.922,2304.9 525.102,2308.08 525.102,2312ZM518,2312L513,2312L513,2353L518,2353L518,2312Z"/>
                <rect x="513" y="2312" width="5" height="41" style="fill:rgb(180,121,88);"/>
            </g>
            <path d="M575,2313.47L584.47,2304L584.47,2314C584.47,2319.23 580.23,2323.47 575,2323.47L510,2323.47C504.77,2323.47 500.53,2319.23 500.53,2314L500.53,2304C500.53,2298.77 504.77,2294.53 510,2294.53L555.491,2294.53L555.491,2238.92C555.491,2233.69 559.731,2229.45 564.961,2229.45L574.961,2229.45C580.191,2229.45 584.431,2233.69 584.431,2238.92L584.431,2304L575,2313.43L575,2304L574.961,2304L574.961,2238.92L564.961,2238.92L564.961,2304L510,2304L510,2314L575,2314L575,2313.47Z"/>
            <path d="M574.961,2304L575,2304L575,2314L510,2314L510,2304L564.961,2304L564.961,2238.92L574.961,2238.92L574.961,2304Z" style="fill:rgb(180,121,88);"/>
        </g>
        <g transform="matrix(-0.879996,0,0,0.879996,742.614,284.158)">
            <g transform="matrix(1,0,0,1,3,1)">
                <path d="M518,2304.9L513,2304.9C509.078,2304.9 505.898,2308.08 505.898,2312L505.898,2353C505.898,2356.92 509.078,2360.1 513,2360.1L518,2360.1C521.922,2360.1 525.102,2356.92 525.102,2353L525.102,2312C525.102,2308.08 521.922,2304.9 518,2304.9ZM518,2312L518,2353L513,2353L513,2312L518,2312Z"/>
                <rect x="513" y="2312" width="5" height="41" style="fill:rgb(180,121,88);"/>
            </g>
            <g transform="matrix(1,0,0,1,53.0117,1.05859)">
                <path d="M518,2304.9L513,2304.9C509.078,2304.9 505.898,2308.08 505.898,2312L505.898,2353C505.898,2356.92 509.078,2360.1 513,2360.1L518,2360.1C521.922,2360.1 525.102,2356.92 525.102,2353L525.102,2312C525.102,2308.08 521.922,2304.9 518,2304.9ZM518,2312L518,2353L513,2353L513,2312L518,2312Z"/>
                <rect x="513" y="2312" width="5" height="41" style="fill:rgb(180,121,88);"/>
            </g>
            <path d="M575,2313.47C580.212,2313.45 584.431,2309.22 584.431,2304L584.431,2238.92C584.431,2233.69 580.191,2229.45 574.961,2229.45L564.961,2229.45C559.731,2229.45 555.491,2233.69 555.491,2238.92L555.491,2294.53L510,2294.53C504.77,2294.53 500.53,2298.77 500.53,2304L500.53,2314C500.53,2319.23 504.77,2323.47 510,2323.47L575,2323.47C580.23,2323.47 584.47,2319.23 584.47,2314L584.47,2304C584.47,2309.23 580.23,2313.47 575,2313.47ZM575,2304L575,2314L510,2314L510,2304L564.961,2304L564.961,2238.92L574.961,2238.92L574.961,2304L575,2304Z"/>
            <path d="M574.961,2304L575,2304L575,2314L510,2314L510,2304L564.961,2304L564.961,2238.92L574.961,2238.92L574.961,2304Z" style="fill:rgb(180,121,88);"/>
        </g>
        <g transform="matrix(0.879996,0,0,0.879996,59.4834,292.097)">
            <g transform="matrix(0.958621,0.284684,-0.284684,0.958621,664.173,16.345)">
                <path d="M310.102,2282L310.102,2346C310.102,2349.92 306.922,2353.1 303,2353.1L297,2353.1C293.078,2353.1 289.898,2349.92 289.898,2346L289.898,2282C289.898,2278.08 293.078,2274.9 297,2274.9L303,2274.9C306.922,2274.9 310.102,2278.08 310.102,2282ZM303,2282L297,2282L297,2346L303,2346L303,2282Z"/>
                <rect x="297" y="2282" width="6" height="64" style="fill:rgb(180,121,88);"/>
            </g>
            <g transform="matrix(-0.958621,0.284684,0.284684,0.958621,109.209,15.2383)">
                <path d="M303,2274.9L297,2274.9C293.078,2274.9 289.898,2278.08 289.898,2282L289.898,2346C289.898,2349.92 293.078,2353.1 297,2353.1L303,2353.1C306.922,2353.1 310.102,2349.92 310.102,2346L310.102,2282C310.102,2278.08 306.922,2274.9 303,2274.9ZM303,2282L303,2346L297,2346L297,2282L303,2282Z"/>
                <rect x="297" y="2282" width="6" height="64" style="fill:rgb(180,121,88);"/>
            </g>
            <g transform="matrix(1,0,0,1,-24,38)">
                <path d="M523.47,2238L523.47,2251C523.47,2256.23 519.23,2260.47 514,2260.47L313,2260.47C307.77,2260.47 303.53,2256.23 303.53,2251L303.53,2238C303.53,2232.77 307.77,2228.53 313,2228.53L514,2228.53C519.23,2228.53 523.47,2232.77 523.47,2238ZM514,2238L313,2238L313,2251L514,2251L514,2238Z"/>
                <rect x="313" y="2238" width="201" height="13" style="fill:rgb(180,121,88);"/>
            </g>
        </g>
        <g transform="matrix(0.924812,0,0,1,36.1203,1)">
            <path d="M651.264,2359L651.264,2440C651.264,2445.75 646.221,2450.42 640,2450.42L108,2450.42C101.779,2450.42 96.736,2445.75 96.736,2440L96.736,2359C96.736,2353.25 101.779,2348.58 108,2348.58L640,2348.58C646.221,2348.58 651.264,2353.25 651.264,2359ZM640,2359L108,2359L108,2440L640,2440L640,2359Z"/>
            <rect x="108" y="2359" width="532" height="81" style="fill:rgb(42,42,42);"/>
        </g>
        <g transform="matrix(0.979323,0,0,0.802469,16.3971,489.925)">
            <path d="M650.637,2359L650.637,2440C650.637,2447.17 645.874,2452.98 640,2452.98L108,2452.98C102.126,2452.98 97.363,2447.17 97.363,2440L97.363,2359C97.363,2351.83 102.126,2346.02 108,2346.02L640,2346.02C645.874,2346.02 650.637,2351.83 650.637,2359ZM640,2359L108,2359L108,2440L640,2440L640,2359Z"/>
            <rect x="108" y="2359" width="532" height="81" style="fill:rgb(21,21,21);"/>
        </g>
        <g transform="matrix(0.929441,0,0,0.929441,113.032,152.366)">
            <path d="M295,1952.03C327.544,1952.03 353.966,1978.46 353.966,2011C353.966,2043.54 327.544,2069.97 295,2069.97C262.456,2069.97 236.034,2043.54 236.034,2011C236.034,1978.46 262.456,1952.03 295,1952.03ZM295,1961C267.404,1961 245,1983.4 245,2011C245,2038.6 267.404,2061 295,2061C322.596,2061 345,2038.6 345,2011C345,1983.4 322.596,1961 295,1961Z"/>
            <circle cx="295" cy="2011" r="50" style="fill:white;"/>
            <g transform="matrix(0.7,0,0,0.7,88.5,603.3)">
                <path d="M295,1948.19C329.665,1948.19 357.809,1976.34 357.809,2011C357.809,2045.66 329.665,2073.81 295,2073.81C260.335,2073.81 232.191,2045.66 232.191,2011C232.191,1976.34 260.335,1948.19 295,1948.19ZM295,1961C267.404,1961 245,1983.4 245,2011C245,2038.6 267.404,2061 295,2061C322.596,2061 345,2038.6 345,2011C345,1983.4 322.596,1961 295,1961Z"/>
                <circle cx="295" cy="2011" r="50" style="fill:rgb(220,141,90);"/>
            </g>
        </g>
        <g transform="matrix(0.929441,0,0,0.929441,313.932,152.863)">
            <path d="M295,1952.03C327.544,1952.03 353.966,1978.46 353.966,2011C353.966,2043.54 327.544,2069.97 295,2069.97C262.456,2069.97 236.034,2043.54 236.034,2011C236.034,1978.46 262.456,1952.03 295,1952.03ZM295,1961C267.404,1961 245,1983.4 245,2011C245,2038.6 267.404,2061 295,2061C322.596,2061 345,2038.6 345,2011C345,1983.4 322.596,1961 295,1961Z"/>
            <circle cx="295" cy="2011" r="50" style="fill:white;"/>
            <g transform="matrix(0.7,0,0,0.7,88.5,603.3)">
                <path d="M295,1948.19C329.665,1948.19 357.809,1976.34 357.809,2011C357.809,2045.66 329.665,2073.81 295,2073.81C260.335,2073.81 232.191,2045.66 232.191,2011C232.191,1976.34 260.335,1948.19 295,1948.19ZM295,1961C267.404,1961 245,1983.4 245,2011C245,2038.6 267.404,2061 295,2061C322.596,2061 345,2038.6 345,2011C345,1983.4 322.596,1961 295,1961Z"/>
                <circle cx="295" cy="2011" r="50" style="fill:rgb(220,141,90);"/>
            </g>
        </g>
        <g transform="matrix(0.929441,0,0,0.929441,-118.502,153.818)">
            <path d="M295,1952.03C327.544,1952.03 353.966,1978.46 353.966,2011C353.966,2043.54 327.544,2069.97 295,2069.97C262.456,2069.97 236.034,2043.54 236.034,2011C236.034,1978.46 262.456,1952.03 295,1952.03ZM295,1961C267.404,1961 245,1983.4 245,2011C245,2038.6 267.404,2061 295,2061C322.596,2061 345,2038.6 345,2011C345,1983.4 322.596,1961 295,1961Z"/>
            <circle cx="295" cy="2011" r="50" style="fill:white;"/>
            <g transform="matrix(0.7,0,0,0.7,88.5,603.3)">
                <path d="M295,1948.19C329.665,1948.19 357.809,1976.34 357.809,2011C357.809,2045.66 329.665,2073.81 295,2073.81C260.335,2073.81 232.191,2045.66 232.191,2011C232.191,1976.34 260.335,1948.19 295,1948.19ZM295,1961C267.404,1961 245,1983.4 245,2011C245,2038.6 267.404,2061 295,2061C322.596,2061 345,2038.6 345,2011C345,1983.4 322.596,1961 295,1961Z"/>
                <circle cx="295" cy="2011" r="50" style="fill:rgb(220,141,90);"/>
            </g>
        </g>
        <g transform="matrix(0.929441,0,0,0.929441,36.8142,362.391)">
            <path d="M295,1952.03C327.544,1952.03 353.966,1978.46 353.966,2011C353.966,2043.54 327.544,2069.97 295,2069.97C262.456,2069.97 236.034,2043.54 236.034,2011C236.034,1978.46 262.456,1952.03 295,1952.03ZM295,1961C267.404,1961 245,1983.4 245,2011C245,2038.6 267.404,2061 295,2061C322.596,2061 345,2038.6 345,2011C345,1983.4 322.596,1961 295,1961Z"/>
            <circle cx="295" cy="2011" r="50" style="fill:white;"/>
            <g transform="matrix(0.7,0,0,0.7,88.5,603.3)">
                <path d="M295,1948.19C329.665,1948.19 357.809,1976.34 357.809,2011C357.809,2045.66 329.665,2073.81 295,2073.81C260.335,2073.81 232.191,2045.66 232.191,2011C232.191,1976.34 260.335,1948.19 295,1948.19ZM295,1961C267.404,1961 245,1983.4 245,2011C245,2038.6 267.404,2061 295,2061C322.596,2061 345,2038.6 345,2011C345,1983.4 322.596,1961 295,1961Z"/>
                <circle cx="295" cy="2011" r="50" style="fill:rgb(220,141,90);"/>
            </g>
        </g>
        <g transform="matrix(0.929441,0,0,0.929441,199.689,359.337)">
            <path d="M295,1952.03C327.544,1952.03 353.966,1978.46 353.966,2011C353.966,2043.54 327.544,2069.97 295,2069.97C262.456,2069.97 236.034,2043.54 236.034,2011C236.034,1978.46 262.456,1952.03 295,1952.03ZM295,1961C267.404,1961 245,1983.4 245,2011C245,2038.6 267.404,2061 295,2061C322.596,2061 345,2038.6 345,2011C345,1983.4 322.596,1961 295,1961Z"/>
            <circle cx="295" cy="2011" r="50" style="fill:white;"/>
            <g transform="matrix(0.7,0,0,0.7,88.5,603.3)">
                <path d="M295,1948.19C329.665,1948.19 357.809,1976.34 357.809,2011C357.809,2045.66 329.665,2073.81 295,2073.81C260.335,2073.81 232.191,2045.66 232.191,2011C232.191,1976.34 260.335,1948.19 295,1948.19ZM295,1961C267.404,1961 245,1983.4 245,2011C245,2038.6 267.404,2061 295,2061C322.596,2061 345,2038.6 345,2011C345,1983.4 322.596,1961 295,1961Z"/>
                <circle cx="295" cy="2011" r="50" style="fill:rgb(220,141,90);"/>
            </g>
        </g>
        <g transform="matrix(1.02138,0,0,1.13333,-11.5822,-277.667)">
            <rect x="74" y="1925" width="608" height="30"/>
        </g>
        <g transform="matrix(1,0,0,0.761905,0,514.714)">
            <path d="M195.333,2124L195.333,2145C195.333,2151.04 191.602,2155.94 187,2155.94L31,2155.94C26.398,2155.94 22.667,2151.04 22.667,2145L22.667,2124C22.667,2117.96 26.398,2113.06 31,2113.06L187,2113.06C191.602,2113.06 195.333,2117.96 195.333,2124ZM187,2124L31,2124L31,2145L187,2145L187,2124Z"/>
            <rect x="31" y="2124" width="156" height="21" style="fill:rgb(82,82,82);"/>
        </g>
        <g transform="matrix(0.953255,-0.302166,0.415955,1.31223,-903.291,-675.295)">
            <path d="M148.333,2142L148.333,2337C148.333,2340.34 144.602,2343.05 140,2343.05L131,2343.05C126.398,2343.05 122.667,2340.34 122.667,2337L122.667,2142C122.667,2138.66 126.398,2135.95 131,2135.95L140,2135.95C144.602,2135.95 148.333,2138.66 148.333,2142ZM140,2142L131,2142L131,2337L140,2337L140,2142Z"/>
            <rect x="131" y="2142" width="9" height="195" style="fill:rgb(180,121,88);"/>
        </g>
        <g transform="matrix(0.953255,-0.302166,0.415955,1.31223,-965.1,-671.912)">
            <path d="M148.333,2142L148.333,2337C148.333,2340.34 144.602,2343.05 140,2343.05L131,2343.05C126.398,2343.05 122.667,2340.34 122.667,2337L122.667,2142C122.667,2138.66 126.398,2135.95 131,2135.95L140,2135.95C144.602,2135.95 148.333,2138.66 148.333,2142ZM140,2142L131,2142L131,2337L140,2337L140,2142Z"/>
            <rect x="131" y="2142" width="9" height="195" style="fill:rgb(180,121,88);"/>
        </g>
        <path d="M139.333,2117L139.333,2124C139.333,2128.6 135.602,2132.33 131,2132.33L60,2132.33C55.398,2132.33 51.667,2128.6 51.667,2124L51.667,2117C51.667,2112.4 55.398,2108.67 60,2108.67L131,2108.67C135.602,2108.67 139.333,2112.4 139.333,2117ZM131,2117L60,2117L60,2124L131,2124L131,2117Z"/>
        <rect x="60" y="2117" width="71" height="7" style="fill:rgb(180,121,88);"/>
        <g transform="matrix(1,0,0,1,17.6562,57.2917)">
            <path d="M139.333,2117L139.333,2124C139.333,2128.6 135.602,2132.33 131,2132.33L60,2132.33C55.398,2132.33 51.667,2128.6 51.667,2124L51.667,2117C51.667,2112.4 55.398,2108.67 60,2108.67L131,2108.67C135.602,2108.67 139.333,2112.4 139.333,2117ZM131,2117L60,2117L60,2124L131,2124L131,2117Z"/>
            <rect x="60" y="2117" width="71" height="7" style="fill:rgb(180,121,88);"/>
        </g>
        <g transform="matrix(1,0,0,1,37.474,120.857)">
            <path d="M139.333,2117L139.333,2124C139.333,2128.6 135.602,2132.33 131,2132.33L60,2132.33C55.398,2132.33 51.667,2128.6 51.667,2124L51.667,2117C51.667,2112.4 55.398,2108.67 60,2108.67L131,2108.67C135.602,2108.67 139.333,2112.4 139.333,2117ZM131,2117L60,2117L60,2124L131,2124L131,2117Z"/>
            <rect x="60" y="2117" width="71" height="7" style="fill:rgb(180,121,88);"/>
        </g>
        <g transform="matrix(1,0,0,1,55.737,175.346)">
            <path d="M139.333,2117L139.333,2124C139.333,2128.6 135.602,2132.33 131,2132.33L60,2132.33C55.398,2132.33 51.667,2128.6 51.667,2124L51.667,2117C51.667,2112.4 55.398,2108.67 60,2108.67L131,2108.67C135.602,2108.67 139.333,2112.4 139.333,2117ZM131,2117L60,2117L60,2124L131,2124L131,2117Z"/>
            <rect x="60" y="2117" width="71" height="7" style="fill:rgb(180,121,88);"/>
        </g>
        <g transform="matrix(0.860197,0,0,1.26667,127.632,-316.516)">
            <rect x="74" y="1925" width="608" height="30" style="fill:none;stroke:black;stroke-width:9.62px;"/>
            <rect x="74" y="1925" width="608" height="30"/>
        </g>
        <g transform="matrix(1,0,0,1,-4,2)">
            <path d="M678.333,2050L678.333,2061C678.333,2065.6 674.602,2069.33 670,2069.33L609,2069.33C604.398,2069.33 600.667,2065.6 600.667,2061L600.667,2050C600.667,2047.04 602.235,2044.31 604.787,2042.81C628.211,2029.09 651.417,2028.71 674.382,2042.91C676.838,2044.43 678.333,2047.11 678.333,2050ZM670,2050C649.871,2037.55 629.53,2037.97 609,2050L609,2061L670,2061L670,2050Z"/>
            <path d="M670,2050L670,2061L609,2061L609,2050C629.53,2037.97 649.871,2037.55 670,2050Z" style="fill:white;"/>
        </g>
        <g transform="matrix(1,0,0,1,1,10)">
            <path d="M693.333,2057L693.333,2083C693.333,2087.6 689.602,2091.33 685,2091.33L425,2091.33C420.398,2091.33 416.667,2087.6 416.667,2083L416.667,2057C416.667,2052.4 420.398,2048.67 425,2048.67L685,2048.67C689.602,2048.67 693.333,2052.4 693.333,2057ZM685,2057L425,2057L425,2083L685,2083L685,2057Z"/>
            <rect x="425" y="2057" width="260" height="26" style="fill:rgb(0,122,67);"/>
        </g>
        <g transform="matrix(1,0,0,1.8,0,-1677.6)">
            <path d="M685.333,2092L685.333,2097C685.333,2099.56 681.602,2101.63 677,2101.63L426,2101.63C421.398,2101.63 417.667,2099.56 417.667,2097L417.667,2092C417.667,2089.44 421.398,2087.37 426,2087.37L677,2087.37C681.602,2087.37 685.333,2089.44 685.333,2092ZM677,2092L426,2092L426,2097L677,2097L677,2092Z"/>
            <rect x="426" y="2092" width="251" height="5" style="fill:rgb(180,121,88);"/>
        </g>
        <g transform="matrix(1,0,0,1,15,3)">
            <path d="M688.333,2024L688.333,2113C688.333,2117.6 684.602,2121.33 680,2121.33L669,2121.33C664.398,2121.33 660.667,2117.6 660.667,2113L660.667,2024C660.667,2019.4 664.398,2015.67 669,2015.67L680,2015.67C684.602,2015.67 688.333,2019.4 688.333,2024ZM680,2024L669,2024L669,2113L680,2113L680,2024Z"/>
            <rect x="669" y="2024" width="11" height="89" style="fill:rgb(180,121,88);"/>
        </g>
        <g transform="matrix(1,0,0,0.674157,-259.777,692.941)">
            <path d="M688.333,2024L688.333,2113C688.333,2119.83 684.602,2125.36 680,2125.36L669,2125.36C664.398,2125.36 660.667,2119.83 660.667,2113L660.667,2024C660.667,2017.17 664.398,2011.64 669,2011.64L680,2011.64C684.602,2011.64 688.333,2017.17 688.333,2024ZM680,2024L669,2024L669,2113L680,2113L680,2024Z"/>
            <rect x="669" y="2024" width="11" height="89" style="fill:rgb(180,121,88);"/>
        </g>
    </g>
</svg>
