<?xml version="1.0" encoding="UTF-8" standalone="no"?>
<!DOCTYPE svg PUBLIC "-//W3C//DTD SVG 1.1//EN" "http://www.w3.org/Graphics/SVG/1.1/DTD/svg11.dtd">
<svg width="100%" height="100%" viewBox="0 0 57 46" version="1.1" xmlns="http://www.w3.org/2000/svg" xmlns:xlink="http://www.w3.org/1999/xlink" xml:space="preserve" xmlns:serif="http://www.serif.com/" style="fill-rule:evenodd;clip-rule:evenodd;stroke-linecap:round;stroke-linejoin:round;stroke-miterlimit:5;">
    <g transform="matrix(1,0,0,1,-228.917,-613.539)">
        <g transform="matrix(0.881356,0,0,0.881356,136.695,154.814)">
            <path d="M136.5,533.293C142.711,521 155.132,521 161.342,525.9C167.553,530.8 167.553,540.6 161.342,550.4C156.995,557.75 145.816,565.1 136.5,570C127.184,565.1 116.005,557.75 111.658,550.4C105.447,540.6 105.447,530.8 111.658,525.9C117.868,521 130.289,521 136.5,533.293Z" style="fill:none;stroke:white;stroke-width:4.73px;"/>
            <path d="M136.5,533.293C142.711,521 155.132,521 161.342,525.9C167.553,530.8 167.553,540.6 161.342,550.4C156.995,557.75 145.816,565.1 136.5,570C127.184,565.1 116.005,557.75 111.658,550.4C105.447,540.6 105.447,530.8 111.658,525.9C117.868,521 130.289,521 136.5,533.293Z" style="fill:white;"/>
        </g>
    </g>
</svg>
