<?xml version="1.0" encoding="UTF-8" standalone="no"?>
<!DOCTYPE svg PUBLIC "-//W3C//DTD SVG 1.1//EN" "http://www.w3.org/Graphics/SVG/1.1/DTD/svg11.dtd">
<svg width="100%" height="100%" viewBox="0 0 97 202" version="1.1" xmlns="http://www.w3.org/2000/svg" xmlns:xlink="http://www.w3.org/1999/xlink" xml:space="preserve" xmlns:serif="http://www.serif.com/" style="fill-rule:evenodd;clip-rule:evenodd;stroke-linecap:round;stroke-linejoin:round;stroke-miterlimit:5;">
    <g transform="matrix(1,0,0,1,-2501.53,-38.4153)">
        <g transform="matrix(1,0,0,1,24,25)">
            <path d="M2527,200C2499.05,158.572 2464.95,27.505 2527,28C2584.89,28.462 2552.6,158.58 2527,200ZM2525.76,42C2513.89,42 2504.26,51.634 2504.26,63.5C2504.26,75.366 2513.89,85 2525.76,85C2537.62,85 2547.26,75.366 2547.26,63.5C2547.26,51.634 2537.62,42 2525.76,42Z" style="fill:none;stroke:black;stroke-width:29.17px;"/>
            <path d="M2527,200C2499.05,158.572 2464.95,27.505 2527,28C2584.89,28.462 2552.6,158.58 2527,200ZM2525.76,42C2513.89,42 2504.26,51.634 2504.26,63.5C2504.26,75.366 2513.89,85 2525.76,85C2537.62,85 2547.26,75.366 2547.26,63.5C2547.26,51.634 2537.62,42 2525.76,42Z" style="fill:white;"/>
        </g>
    </g>
</svg>
