<?xml version="1.0" encoding="UTF-8" standalone="no"?>
<!DOCTYPE svg PUBLIC "-//W3C//DTD SVG 1.1//EN" "http://www.w3.org/Graphics/SVG/1.1/DTD/svg11.dtd">
<svg width="100%" height="100%" viewBox="0 0 104 133" version="1.1" xmlns="http://www.w3.org/2000/svg" xmlns:xlink="http://www.w3.org/1999/xlink" xml:space="preserve" xmlns:serif="http://www.serif.com/" style="fill-rule:evenodd;clip-rule:evenodd;stroke-linecap:round;stroke-linejoin:round;stroke-miterlimit:5;">
    <g transform="matrix(1,0,0,1,-1957.62,-1791.62)">
        <g transform="matrix(1,0,0,1,0,3)">
            <rect x="1967" y="1798" width="85" height="114" style="fill:none;stroke:black;stroke-width:18.75px;"/>
            <rect x="1967" y="1798" width="85" height="114" style="fill:white;"/>
        </g>
        <g transform="matrix(1,0,0,1,0,8)">
            <path d="M1977,1812L2042,1811" style="fill:none;stroke:black;stroke-width:8.33px;"/>
            <path d="M1977,1812L2042,1811" style="fill:none;"/>
        </g>
        <g transform="matrix(1,0,0,1,0,8)">
            <path d="M1984,1839L2018,1838" style="fill:none;stroke:black;stroke-width:8.33px;"/>
            <path d="M1984,1839L2018,1838" style="fill:none;"/>
        </g>
        <g transform="matrix(1,0,0,1,0,8)">
            <path d="M2002,1864L2040,1864" style="fill:none;stroke:black;stroke-width:8.33px;"/>
            <path d="M2002,1864L2040,1864" style="fill:none;"/>
        </g>
        <g transform="matrix(1,0,0,1,-4,8)">
            <path d="M1985,1890L2004,1889" style="fill:none;stroke:black;stroke-width:8.33px;"/>
            <path d="M1985,1890L2004,1889" style="fill:none;"/>
        </g>
        <g transform="matrix(1,0,0,1,-4,8)">
            <path d="M2027,1889L2043,1889" style="fill:none;stroke:black;stroke-width:8.33px;"/>
            <path d="M2027,1889L2043,1889" style="fill:none;"/>
        </g>
    </g>
</svg>
