<?xml version="1.0" encoding="UTF-8" standalone="no"?>
<!DOCTYPE svg PUBLIC "-//W3C//DTD SVG 1.1//EN" "http://www.w3.org/Graphics/SVG/1.1/DTD/svg11.dtd">
<svg width="100%" height="100%" viewBox="0 0 153 112" version="1.1" xmlns="http://www.w3.org/2000/svg" xmlns:xlink="http://www.w3.org/1999/xlink" xml:space="preserve" xmlns:serif="http://www.serif.com/" style="fill-rule:evenodd;clip-rule:evenodd;stroke-linejoin:round;stroke-miterlimit:2;">
    <g transform="matrix(1,0,0,1,-889.75,-1200.86)">
        <g transform="matrix(1,0,0,1,313,-179.888)">
            <path d="M588.046,1477.81L578.046,1464.81C576.695,1463.05 576.375,1460.71 577.205,1458.66C592.191,1421.58 615.736,1391.26 664.704,1380.89C665.898,1380.63 667.139,1380.74 668.276,1381.18C700.702,1393.86 722.303,1419.63 729.173,1463.02C729.487,1465.01 728.828,1467.02 727.402,1468.44C725.975,1469.85 723.956,1470.5 721.974,1470.16C713.448,1468.75 705.804,1465.79 698.91,1461.53C700.365,1468.44 700.871,1475.51 700.225,1482.76C700.046,1484.78 698.904,1486.58 697.16,1487.6C695.416,1488.62 693.285,1488.74 691.441,1487.91C684.041,1484.59 677.409,1479.99 671.452,1474.28C671.335,1478.99 670.541,1483.62 668.862,1488.17C668.232,1489.87 666.888,1491.22 665.182,1491.86C663.477,1492.49 661.579,1492.35 659.985,1491.48C647.283,1484.48 638.121,1474.09 631.414,1461.37C620.495,1472.47 607.821,1478.33 593.827,1480.19C591.612,1480.49 589.408,1479.58 588.046,1477.81ZM593,1474C608.321,1471.96 621.863,1464.58 633,1450C639.368,1465.47 648.687,1478.12 663,1486C667.135,1474.81 664.999,1463 661,1451C669.672,1465.23 680.39,1476.1 694,1482.21C695.318,1467.39 691.352,1453.44 684.292,1440C694.504,1452.68 707.027,1461.34 723,1464C716.548,1423.26 696.452,1398.9 666,1387C619.487,1396.86 597.234,1425.78 583,1461L593,1474Z"/>
            <path d="M593,1474L583,1461C597.234,1425.78 619.487,1396.86 666,1387C696.452,1398.9 716.548,1423.26 723,1464C707.027,1461.34 694.504,1452.68 684.292,1440C691.352,1453.44 695.318,1467.39 694,1482.21C680.39,1476.1 669.672,1465.23 661,1451C664.999,1463 667.135,1474.81 663,1486C648.687,1478.12 639.368,1465.47 633,1450C621.863,1464.58 608.321,1471.96 593,1474Z" style="fill:white;"/>
        </g>
    </g>
</svg>
